<svg width="92" height="49" viewBox="0 0 92 49" fill="none" xmlns="http://www.w3.org/2000/svg">
<path d="M63.8882 6.54063L58.034 24.3877C57.4607 26.1845 56.6559 27.4225 55.6196 28.1017C54.5832 28.781 53.2272 29.1206 51.5514 29.1206C50.1844 29.1206 48.9055 28.9672 47.7148 28.6605V25.397C49.1762 25.2984 49.3485 25.397 50.0375 25.0547C50.7266 24.7123 51.1443 24.3932 51.4522 24.1248C51.7601 23.8564 51.9704 23.577 52.0806 23.0073L46.3257 6.54063H52.3783L55.1235 17.0911H55.1896L57.8025 6.54063H63.8882Z" fill="white"/>
<path d="M41.3768 16.861V15.9736L39.7892 16.138C38.6206 16.2475 37.7938 16.4557 37.3087 16.7624C36.8236 17.0473 36.581 17.5184 36.581 18.1757V18.2415C36.581 19.1837 37.1323 19.6548 38.2348 19.6548C40.3295 19.6548 41.3768 18.7235 41.3768 16.861ZM37.474 11.7666H31.8845C31.9727 9.96981 32.6121 8.57842 33.8028 7.5924C34.9935 6.60637 36.9559 6.11336 39.69 6.11336C42.4683 6.11336 44.3866 6.62828 45.445 7.65813C46.5033 8.68798 47.0325 10.1232 47.0325 11.9638V23.1716H41.8068L41.6745 21.0681H41.6083C41.1673 21.8131 40.4948 22.4266 39.5908 22.9087C38.6868 23.3688 37.6284 23.5989 36.4157 23.5989C34.8501 23.5989 33.5602 23.2154 32.546 22.4485C31.5537 21.6816 31.0576 20.4765 31.0576 18.8331V18.7674C31.0576 16.7953 31.7412 15.4258 33.1082 14.6589C34.4753 13.8701 36.581 13.3771 39.4254 13.1799L41.3768 13.0155V12.0295C41.3768 11.2845 41.2666 10.7805 41.0461 10.5176C40.8256 10.2328 40.3405 10.0903 39.5908 10.0903C38.3119 10.0903 37.6063 10.6491 37.474 11.7666Z" fill="white"/>
<path d="M30.9705 10.8792H27.0015V17.1897C27.0015 17.8909 27.1228 18.351 27.3653 18.5702C27.6079 18.7893 28.0709 18.8988 28.7545 18.8988C29.3939 18.8988 30.1546 18.8112 31.0366 18.6359V22.9415C29.89 23.3359 28.5781 23.5331 27.1007 23.5331C25.0942 23.5331 23.6059 23.1387 22.6357 22.3499C21.6655 21.5392 21.1804 20.0273 21.1804 17.8142V10.8792H18.8652V6.54064H21.3458L21.6104 1.61051H27.0015V6.54064H30.9705V10.8792Z" fill="white"/>
<path d="M10.1208 14.2974L8.16937 13.9687C5.45727 13.4647 3.48383 12.6978 2.24906 11.668C1.03633 10.6162 0.429967 8.98379 0.429967 6.77071V6.70497C0.429967 2.23499 3.38461 0 9.29389 0C12.4029 0 14.6519 0.58066 16.0411 1.74198C17.4522 2.9033 18.224 4.62336 18.3563 6.90218H12.3367C12.2044 5.56557 11.2122 4.89726 9.36004 4.89726C7.48583 4.89726 6.54872 5.47792 6.54872 6.63924V6.70497C6.54872 7.27468 6.81332 7.72387 7.34251 8.05254C7.8717 8.38122 8.77573 8.66607 10.0546 8.9071L12.1714 9.30151C14.6189 9.73974 16.3939 10.4847 17.4963 11.5365C18.5988 12.5883 19.1501 14.1221 19.1501 16.138V16.2037C19.1501 18.8112 18.3563 20.7065 16.7687 21.8898C15.1811 23.073 12.8549 23.6646 9.79001 23.6646C6.57077 23.6646 4.15634 23.0073 2.54673 21.6926C0.959157 20.356 0.110248 18.3072 0 15.5463H6.01953C6.10773 16.5762 6.47155 17.365 7.11099 17.9128C7.75043 18.4606 8.63241 18.7345 9.75694 18.7345C10.9697 18.7345 11.8186 18.5702 12.3037 18.2415C12.7888 17.8909 13.0313 17.3321 13.0313 16.5652V16.4995C13.0313 15.9517 12.8218 15.5135 12.4029 15.1848C11.9839 14.8342 11.2232 14.5384 10.1208 14.2974Z" fill="white"/>
<path d="M60.7194 44.8587C62.1967 44.8587 63.9717 44.541 66.0444 43.9055V47.8168C64.3686 48.5837 62.3731 48.9671 60.0579 48.9671C53.8399 48.9671 50.731 46.0529 50.731 40.2244V40.1586C50.731 37.3758 51.4476 35.2285 52.8808 33.7166C54.314 32.2047 56.4087 31.4487 59.1649 31.4487C61.9211 31.4487 63.9276 32.1499 65.1845 33.5523C66.4413 34.9546 67.0697 36.8061 67.0697 39.1069C67.0697 40.2463 66.9594 41.1775 66.7389 41.9006H56.2544C56.3867 42.9305 56.7946 43.6864 57.4781 44.1685C58.1837 44.6286 59.2641 44.8587 60.7194 44.8587ZM59.198 35.4586C58.2499 35.4586 57.5443 35.7325 57.0812 36.2803C56.6182 36.8061 56.3316 37.6169 56.2213 38.7125H61.7778C61.7778 36.5432 60.9179 35.4586 59.198 35.4586Z" fill="white"/>
<path d="M47.6415 31.876H51.6766V36.2145H47.6746V48.507H41.8866V36.2145H39.4722V31.876H41.7874V31.0215C41.7874 28.9618 42.2614 27.5156 43.2096 26.6829C44.1798 25.8284 45.8004 25.4011 48.0715 25.4011C49.3283 25.4011 50.5741 25.5545 51.8089 25.8613L51.6766 29.0637C50.7268 29.1631 50.4758 29.1521 49.6933 29.3343C48.6597 29.6766 48.3854 29.7999 48.1429 30.019C47.9004 30.2381 47.6415 30.3422 47.6415 30.9557V31.876Z" fill="white"/>
<path d="M33.8949 42.1964V41.309L32.3073 41.4733C31.1387 41.5829 30.3118 41.7911 29.8267 42.0978C29.3416 42.3827 29.0991 42.8538 29.0991 43.5111V43.5769C29.0991 44.5191 29.6503 44.9902 30.7528 44.9902C32.8475 44.9902 33.8949 44.0589 33.8949 42.1964ZM29.9921 37.102H24.4025C24.4907 35.3052 25.1302 33.9138 26.3209 32.9278C27.5115 31.9418 29.4739 31.4487 32.2081 31.4487C34.9863 31.4487 36.9046 31.9637 37.963 32.9935C39.0214 34.0234 39.5506 35.4586 39.5506 37.2992V48.507H34.3249L34.1926 46.4035H34.1264C33.6854 47.1485 33.0129 47.762 32.1089 48.244C31.2048 48.7042 30.1465 48.9343 28.9337 48.9343C27.3682 48.9343 26.0783 48.5508 25.064 47.7839C24.0718 47.017 23.5757 45.8118 23.5757 44.1685V44.1027C23.5757 42.1307 24.2592 40.7612 25.6263 39.9943C26.9934 39.2055 29.0991 38.7125 31.9435 38.5153L33.8949 38.3509V37.3649C33.8949 36.6199 33.7846 36.1159 33.5641 35.853C33.3436 35.5681 32.8586 35.4257 32.1089 35.4257C30.83 35.4257 30.1244 35.9845 29.9921 37.102Z" fill="white"/>
<path d="M14.5998 39.6328L12.6484 39.3041C9.93627 38.8001 7.96284 38.0332 6.72806 37.0034C5.51533 35.9516 4.90897 34.3192 4.90897 32.1061V32.0404C4.90897 27.5704 7.86361 25.3354 13.7729 25.3354C16.8819 25.3354 19.1309 25.916 20.5201 27.0774C21.9312 28.2387 22.703 29.9587 22.8353 32.2376H16.8157C16.6834 30.9009 15.6912 30.2326 13.839 30.2326C11.9648 30.2326 11.0277 30.8133 11.0277 31.9746V32.0404C11.0277 32.6101 11.2923 33.0592 11.8215 33.3879C12.3507 33.7166 13.2547 34.0015 14.5336 34.2425L16.6504 34.6369C19.0979 35.0751 20.8729 35.8201 21.9753 36.8719C23.0778 37.9236 23.6291 39.4575 23.6291 41.4733V41.5391C23.6291 44.1466 22.8353 46.0419 21.2477 47.2252C19.6601 48.4084 17.3339 49 14.269 49C11.0498 49 8.63535 48.3426 7.02573 47.0279C5.43816 45.6913 4.58925 43.6426 4.479 40.8817H10.4985C10.5867 41.9116 10.9506 42.7004 11.59 43.2482C12.2294 43.796 13.1114 44.0699 14.2359 44.0699C15.4487 44.0699 16.2976 43.9055 16.7827 43.5769C17.2678 43.2263 17.5103 42.6675 17.5103 41.9006V41.8349C17.5103 41.2871 17.3008 40.8489 16.8819 40.5202C16.4629 40.1696 15.7022 39.8738 14.5998 39.6328Z" fill="white"/>
<path fill-rule="evenodd" clip-rule="evenodd" d="M76.1865 0.91761L60.373 28.136H92L76.1865 0.91761ZM76.1865 10.8707L69.0606 23.136H83.3124L76.1865 10.8707Z" fill="url(#paint0_linear_95_32)"/>
<defs>
<linearGradient id="paint0_linear_95_32" x1="60.373" y1="14.5268" x2="92" y2="14.5268" gradientUnits="userSpaceOnUse">
<stop stop-color="#C3B091"/>
<stop offset="1" stop-color="#564042"/>
</linearGradient>
</defs>
</svg>
